<?xml version="1.0" encoding="UTF-8" standalone="no"?>
<!-- Created with Inkscape (http://www.inkscape.org/) -->

<svg
   xmlns:dc="http://purl.org/dc/elements/1.1/"
   xmlns:cc="http://creativecommons.org/ns#"
   xmlns:rdf="http://www.w3.org/1999/02/22-rdf-syntax-ns#"
   xmlns:svg="http://www.w3.org/2000/svg"
   xmlns="http://www.w3.org/2000/svg"
   xmlns:sodipodi="http://sodipodi.sourceforge.net/DTD/sodipodi-0.dtd"
   xmlns:inkscape="http://www.inkscape.org/namespaces/inkscape"
   version="1.1"
   id="svg2"
   width="512"
   height="512"
   viewBox="0 0 512 512"
   sodipodi:docname="empty-album.svg"
   inkscape:version="0.92.3 (2405546, 2018-03-11)">
  <metadata
     id="metadata8">
    <rdf:RDF>
      <cc:Work
         rdf:about="">
        <dc:format>image/svg+xml</dc:format>
        <dc:type
           rdf:resource="http://purl.org/dc/dcmitype/StillImage" />
        <dc:title></dc:title>
      </cc:Work>
    </rdf:RDF>
  </metadata>
  <defs
     id="defs6" />
  <sodipodi:namedview
     pagecolor="#ffffff"
     bordercolor="#666666"
     borderopacity="1"
     objecttolerance="10"
     gridtolerance="10"
     guidetolerance="10"
     inkscape:pageopacity="0"
     inkscape:pageshadow="2"
     inkscape:window-width="1600"
     inkscape:window-height="841"
     id="namedview4"
     showgrid="false"
     inkscape:zoom="0.921875"
     inkscape:cx="223.39558"
     inkscape:cy="265.10731"
     inkscape:window-x="0"
     inkscape:window-y="0"
     inkscape:window-maximized="1"
     inkscape:current-layer="svg2" />
  <path
     style="opacity:1;fill:#6c757d;fill-opacity:1;stroke-width:0.62537229"
     d="m 143.60168,387.25598 c -3.66624,-1.15232 -6.1643,-3.21637 -8.02071,-6.6272 -1.61047,-2.95897 -1.62263,-3.08697 -1.62263,-17.08232 v -14.101 l -14.53991,-0.19793 c -15.79054,-0.21495 -16.38117,-0.33363 -20.082977,-4.03543 -4.163402,-4.16341 -3.820485,5.01284 -4.001278,-107.07168 -0.117132,-72.61654 0.03303,-102.26782 0.527304,-104.12448 1.047433,-3.9345 5.754911,-8.2155 10.048151,-9.13784 2.47584,-0.5319 36.21268,-0.66929 129.6717,-0.52805 l 126.3252,0.19091 2.8818,1.69414 c 2.8912,1.69967 4.56741,3.6398 6.02751,6.97652 0.55148,1.26031 0.78396,5.93331 0.78396,15.75853 v 13.96695 l 14.59114,0.18847 14.59113,0.18847 3.04797,1.88577 c 2.21752,1.37197 3.52409,2.79715 4.79541,5.23073 l 1.74743,3.34496 -0.004,101.08256 c -0.003,68.60593 -0.21426,101.84151 -0.65949,103.44479 -0.82817,2.98223 -3.78474,6.37827 -7.09497,8.14959 l -2.56044,1.37025 -126.95057,0.1176 c -101.78273,0.0943 -127.45613,-0.0414 -129.50173,-0.68431 z M 384.73261,275.56836 V 188.64162 H 272.1656 159.5986 v 86.92674 86.92675 h 112.567 112.56701 z m -210.88318,69.57267 c 0.66175,-0.94588 11.81547,-17.05703 24.78605,-35.80256 12.97058,-18.74554 24.413,-34.85669 25.42759,-35.80256 2.17057,-2.02357 5.40394,-2.30024 7.30858,-0.62538 0.6845,0.60192 5.39363,6.58205 10.46473,13.28916 5.0711,6.70712 9.88916,12.89191 10.7068,13.74398 1.90861,1.98896 5.88985,2.15056 7.70357,0.31269 0.67116,-0.6801 11.38364,-14.60387 23.80551,-30.94172 12.42188,-16.33785 23.28957,-30.07536 24.15042,-30.52781 2.08294,-1.09474 4.69707,-0.44942 6.62217,1.63473 0.85825,0.92916 13.98372,18.20721 29.16771,38.39568 l 27.60724,36.70628 v 15.66864 15.66864 h -99.47678 -99.47677 z m 35.10939,-96.65369 c -6.51079,-1.84598 -11.91733,-6.52557 -14.86668,-12.86775 -1.35571,-2.91526 -1.63557,-4.42106 -1.64113,-8.83026 -0.006,-4.65958 0.23238,-5.81738 1.93041,-9.38059 3.7123,-7.79003 10.41579,-12.46551 18.62811,-12.99254 10.63634,-0.6826 19.79837,5.54509 23.00041,15.63403 3.36966,10.61702 -1.99048,22.41939 -12.33221,27.15399 -4.09852,1.87637 -10.62104,2.44497 -14.71891,1.28312 z m -74.85152,-0.6943 0.16372,-75.92899 1.87999,-2.71157 c 1.2313,-1.77595 3.05021,-3.30498 5.27146,-4.43135 l 3.39147,-1.71978 h 100.57279 100.5728 v -6.56641 -6.56641 h -112.56701 -112.567 v 86.92675 86.92675 h 6.55902 6.55903 z"
     id="path12"
     inkscape:connector-curvature="0" />
</svg>
